<svg width="30" height="30" viewBox="0 0 30 30" fill="none" xmlns="http://www.w3.org/2000/svg">
<path d="M4.96597 5.90728C3.28344 6.34795 2.42214 7.18921 1.94142 8.89178C1.10015 11.7561 2.58238 14.2999 5.94745 15.8422C7.89038 16.7236 8.47125 17.4246 8.47125 18.8868C8.47125 19.8282 8.39113 20.0686 7.89038 20.5694C7.42968 21.0301 7.12923 21.1502 6.4482 21.1502C5.76718 21.1502 5.50679 21.0301 4.986 20.4692C4.26492 19.7281 3.86431 18.6064 3.86431 17.4046C3.86431 16.984 3.76416 16.5233 3.62395 16.3831C3.30347 16.0626 1.32048 16.0626 1.14021 16.3831C1.04006 16.5233 1 17.2444 1 17.9654C1.04006 20.3691 2.58238 22.8328 4.56537 23.674C5.70709 24.1548 7.67004 24.0947 8.7717 23.5539C10.4342 22.7526 11.4758 20.9299 11.4758 18.8668C11.4758 16.3831 10.8148 15.4016 8.1708 13.9995C5.10618 12.357 4.34504 11.3955 4.86582 9.8332C5.16627 8.95187 5.74715 8.53123 6.68857 8.53123C7.46974 8.53123 7.99053 8.9719 8.71161 10.3139C9.03209 10.8948 9.13225 10.9349 10.1538 10.9349C11.1753 10.9349 11.2755 10.8948 11.3957 10.4341C11.6961 9.23229 10.1938 7.00894 8.51131 6.20774C7.69007 5.80713 5.90739 5.66692 4.96597 5.90728ZM9.87336 9.01196C9.87336 9.05202 9.71312 9.21226 9.53285 9.35247C9.21237 9.61286 9.19234 9.59283 9.45273 9.27235C9.71312 8.95187 9.87336 8.85172 9.87336 9.01196ZM3.62395 11.8162C3.34353 12.1567 3.44368 12.2969 3.90437 12.1767C4.16477 12.1166 4.28495 12.1567 4.20483 12.2769C4.12471 12.3971 4.50528 12.7776 5.02606 13.1582C5.54685 13.5187 6.06763 13.9594 6.18781 14.1196C6.30799 14.2799 6.60845 14.4401 6.84881 14.4802C7.5098 14.5803 9.15228 15.5017 9.69309 16.0626C10.1738 16.5633 10.1738 16.5834 9.77321 16.8838C9.37261 17.1843 9.37261 17.1843 9.81327 17.0841C10.4743 16.9239 10.5544 17.2444 9.95348 17.645C9.67306 17.8252 9.41267 17.9454 9.39264 17.9053C9.37261 17.8653 9.07216 17.3645 8.71161 16.7636C8.35107 16.1627 8.09068 15.5618 8.15077 15.4216C8.27095 15.1011 8.09068 15.0611 7.69007 15.3215C7.5098 15.4416 7.06914 15.3415 6.4482 15.1011C5.52682 14.7206 5.32651 14.4201 5.76718 14.0996C5.88736 14.0195 5.56688 13.9394 5.06612 13.9193C4.24489 13.8993 4.20483 13.8793 4.76567 13.7391C5.40664 13.5788 5.30648 13.4987 4.3851 13.4587C3.54383 13.4186 3.10317 12.6975 3.02305 11.1752L2.94293 9.91332L3.36356 10.7746C3.58389 11.2553 3.70407 11.716 3.62395 11.8162ZM3.00302 17.5648C2.96296 18.1257 2.56235 18.0255 2.56235 17.4647C2.56235 17.1843 2.6625 17.024 2.80271 17.0841C2.9229 17.1442 3.02305 17.3445 3.00302 17.5648ZM10.6345 18.5864C10.5944 19.0471 10.4342 19.3075 10.1338 19.4477C9.87336 19.5478 9.67306 19.7081 9.67306 19.8082C9.67306 19.8883 9.85333 19.8683 10.0737 19.7481C10.294 19.6279 10.4743 19.6079 10.4743 19.7081C10.4743 19.8082 10.2539 19.9885 9.97351 20.1087C9.47276 20.329 9.47276 20.329 9.47276 19.3475C9.47276 18.6264 9.57291 18.306 9.8333 18.1657C10.4743 17.7852 10.6946 17.9053 10.6345 18.5864ZM3.02305 18.7466C3.06311 19.1272 3.04308 19.1873 2.88284 18.9469C2.78268 18.7867 2.72259 18.6064 2.78268 18.5263C2.82274 18.4462 2.70256 18.326 2.52229 18.2659C2.24187 18.1858 2.24187 18.1858 2.56235 18.2058C2.82274 18.2459 2.98299 18.4261 3.02305 18.7466Z" fill="#FB1105"/>
<path d="M18.8465 7.16941C18.8064 7.87047 18.8064 8.53146 18.8465 8.67167C18.8865 8.83191 19.4674 8.93206 20.3487 8.97212L21.7909 9.03222L21.891 16.3432L21.9912 23.6542L23.4534 23.7143L24.8956 23.7744V16.3633V8.95209L26.4579 8.892L28.0002 8.83191L27.9201 7.52995C27.8801 6.80887 27.82 6.1679 27.7599 6.06775C27.7198 5.98763 25.6968 5.92754 23.2931 5.92754H18.9266L18.8465 7.16941ZM26.0974 7.81038C26.0974 7.87047 26.0172 7.97062 25.8971 8.03071C25.7969 8.0908 25.6968 8.05074 25.6968 7.95059C25.6968 7.83041 25.7969 7.73025 25.8971 7.73025C26.0172 7.73025 26.0974 7.77032 26.0974 7.81038ZM23.3132 9.41279C23.3332 9.31264 23.3332 9.17243 23.3332 9.11234C23.3132 9.05225 23.4534 8.99215 23.5936 8.99215C23.8139 8.99215 23.834 9.07228 23.6737 9.27258C23.4934 9.45285 23.5135 9.61309 23.6937 9.83342C23.9541 10.1539 23.7739 10.6146 23.4534 10.4143C23.3132 10.3342 23.3132 10.4143 23.4534 10.6747C23.5936 10.9151 23.5936 11.1754 23.4734 11.3557C23.3733 11.4959 23.2931 11.7163 23.2931 11.8364C23.2931 11.9366 23.3733 11.9166 23.4734 11.7563C23.5736 11.5961 23.6937 11.576 23.7739 11.6962C23.854 11.8164 23.7538 11.9967 23.5535 12.1169C23.213 12.2971 23.213 12.3172 23.5535 12.6777C23.9541 13.1384 23.9942 13.9596 23.6537 14.3001C23.4734 14.4804 23.4734 14.5405 23.6537 14.5405C23.8139 14.5405 23.8941 15.0813 23.8941 16.3432C23.8941 17.4048 23.8139 18.1459 23.6937 18.1459C23.5936 18.1459 23.4934 18.0258 23.4934 17.8655C23.4934 17.7053 23.3332 17.6051 23.1529 17.6252C22.8124 17.6452 22.7924 17.3047 22.7924 13.2786C22.7724 9.63312 22.8124 8.95209 23.0328 9.25255C23.173 9.45285 23.3132 9.53297 23.3132 9.41279ZM23.5736 19.3878C23.5135 19.4679 23.3933 19.5481 23.2731 19.5481C23.173 19.5481 23.0928 19.4679 23.0928 19.3878C23.0928 19.2877 23.2331 19.2075 23.3933 19.2075C23.5535 19.2075 23.6337 19.2877 23.5736 19.3878Z" fill="#FB1105"/>
<path d="M22.8936 9.89357C22.8936 9.97369 23.0738 10.0538 23.2942 10.0738C23.5145 10.0939 23.6547 10.0338 23.5946 9.9136C23.4544 9.69327 22.8936 9.67324 22.8936 9.89357Z" fill="#FB1105"/>
<path d="M23.0918 12.9379C23.0918 13.038 23.1919 13.1382 23.3121 13.1382C23.4123 13.1382 23.4523 13.038 23.3922 12.9379C23.3322 12.8177 23.232 12.7376 23.1719 12.7376C23.1319 12.7376 23.0918 12.8177 23.0918 12.9379Z" fill="#FB1105"/>
<path d="M15.0811 14.6406C15.0811 21.8915 15.1211 22.9531 15.3815 22.9531C15.6419 22.9531 15.682 21.8915 15.682 14.6406C15.682 7.38969 15.6419 6.32809 15.3815 6.32809C15.1211 6.32809 15.0811 7.38969 15.0811 14.6406Z" fill="#FB1105"/>
</svg>
