<?xml version="1.0" standalone="no"?>
<!DOCTYPE svg PUBLIC "-//W3C//DTD SVG 20010904//EN"
 "http://www.w3.org/TR/2001/REC-SVG-20010904/DTD/svg10.dtd">
<svg version="1.0" xmlns="http://www.w3.org/2000/svg"
 width="500.000000pt" height="300.000000pt" viewBox="0 0 500.000000 300.000000"
 preserveAspectRatio="xMidYMid meet">

<g transform="translate(0.000000,300.000000) scale(0.100000,-0.100000)"
fill="#000000" stroke="none">
<path d="M1815 2291 c-84 -22 -127 -64 -151 -149 -42 -143 32 -270 200 -347
97 -44 126 -79 126 -152 0 -47 -4 -59 -29 -84 -23 -23 -38 -29 -72 -29 -34 0
-47 6 -73 34 -36 37 -56 93 -56 153 0 21 -5 44 -12 51 -16 16 -115 16 -124 0
-5 -7 -7 -43 -7 -79 2 -120 79 -243 178 -285 57 -24 155 -21 210 6 83 40 135
131 135 234 0 124 -33 173 -165 243 -153 82 -191 130 -165 208 15 44 44 65 91
65 39 0 65 -22 101 -89 16 -29 21 -31 72 -31 51 0 56 2 62 25 15 60 -60 171
-144 211 -41 20 -130 27 -177 15z m245 -155 c0 -2 -8 -10 -17 -17 -16 -13 -17
-12 -4 4 13 16 21 21 21 13z m-312 -140 c-14 -17 -9 -24 14 -18 13 3 19 1 15
-5 -4 -6 15 -25 41 -44 26 -18 52 -40 58 -48 6 -8 21 -16 33 -18 33 -5 115
-51 142 -79 24 -25 24 -26 4 -41 -20 -15 -20 -15 2 -10 33 8 37 -8 7 -28 -14
-9 -27 -15 -28 -13 -1 2 -16 27 -34 57 -18 30 -31 60 -28 67 6 16 -3 18 -23 5
-9 -6 -31 -1 -62 11 -46 19 -56 34 -34 50 6 4 -10 8 -35 9 -41 1 -43 2 -15 9
32 8 27 12 -19 14 -42 2 -64 38 -68 114 l-4 63 21 -43 c11 -24 17 -47 13 -52z
m-31 -287 c-2 -28 -22 -23 -22 5 0 14 5 22 12 19 6 -3 11 -13 10 -24z m381
-51 c-2 -23 -10 -36 -25 -43 -13 -5 -23 -13 -23 -18 0 -4 9 -3 20 3 11 6 20 7
20 2 0 -5 -11 -14 -25 -20 -25 -11 -25 -11 -25 38 0 36 5 52 18 59 32 19 43
13 40 -21z m-380 -8 c2 -19 1 -22 -7 -10 -5 8 -8 17 -5 21 2 4 -4 10 -13 13
-14 4 -14 4 2 3 13 -2 21 -11 23 -27z"/>
<path d="M2508 2228 c-2 -35 -2 -68 0 -75 2 -8 31 -13 75 -15 l72 -3 5 -365 5
-365 73 -3 72 -3 0 370 0 370 78 3 77 3 -4 65 c-2 36 -5 68 -8 73 -2 4 -103 7
-223 7 l-218 0 -4 -62z m362 -32 c0 -3 -4 -8 -10 -11 -5 -3 -10 -1 -10 4 0 6
5 11 10 11 6 0 10 -2 10 -4z m-139 -80 c1 5 1 12 1 15 -1 3 6 6 13 6 11 0 12
-4 4 -14 -9 -9 -8 -17 1 -28 13 -16 4 -39 -12 -29 -7 4 -7 0 0 -13 7 -12 7
-25 1 -34 -5 -7 -9 -18 -9 -24 0 -5 4 -4 9 4 5 8 11 9 15 3 4 -6 -1 -15 -11
-21 -17 -9 -17 -10 0 -28 20 -23 22 -64 5 -81 -9 -9 -9 -12 0 -12 8 0 12 -27
12 -90 0 -53 -4 -90 -10 -90 -5 0 -10 6 -10 14 0 8 -8 13 -17 12 -17 -1 -18
16 -18 217 -1 182 1 216 12 201 7 -10 14 -14 14 -8z m13 -498 c-3 -4 -9 -8
-15 -8 -5 0 -9 4 -9 8 0 5 7 9 15 9 8 0 12 -4 9 -9z"/>
<path d="M2710 2092 c0 -4 9 -8 20 -9 11 -1 18 2 15 8 -7 11 -35 12 -35 1z"/>
<path d="M2720 1940 c0 -5 5 -10 11 -10 5 0 7 5 4 10 -3 6 -8 10 -11 10 -2 0
-4 -4 -4 -10z"/>
<path d="M2320 1855 c0 -362 2 -415 15 -415 13 0 15 53 15 415 0 362 -2 415
-15 415 -13 0 -15 -53 -15 -415z"/>
</g>
</svg>
